<svg width="112" height="54" viewBox="0 0 112 54" fill="none" xmlns="http://www.w3.org/2000/svg">
<path d="M56.4118 19.5588V35.4118H62.3824L75.1471 13.3824L97.1765 50.6471H112L82.9706 0H67.9412L56.4118 19.5588Z" fill="#3A3A3C"/>
<path d="M41.1765 23.0588L41.5882 50.4412H87.7059L75.3529 29.0294L70.8235 38.5H53.9412V23.4706C53.9412 10.5081 43.433 0 30.4706 0H25.1177C11.2456 0 0 11.2456 0 25.1177V28.8235C0 42.6956 11.2456 53.9412 25.1177 53.9412H38.9118V35.4118L32.2271 39.0112C31.3359 39.4911 30.3762 39.8311 29.3817 40.0192C22.2488 41.3687 15.6471 35.8988 15.6471 28.6394V22.8488C15.6471 17.6344 19.6836 13.3099 24.8857 12.9511L28.3171 12.7144C34.6464 12.2779 40.2467 16.783 41.1765 23.0588Z" fill="#3A3A3C"/>
<ellipse cx="28" cy="26.1471" rx="9.47059" ry="9.67647" fill="#3A3A3C"/>
</svg>
