<svg width="67" height="140" viewBox="0 0 67 140" fill="none" xmlns="http://www.w3.org/2000/svg">
<path d="M24.279 69.0035H43.9578V61.592L16.612 45.7468L62.8699 18.4009V-3.05176e-05L0 36.0352L0 54.6917L24.279 69.0035Z" fill="#1C1B1B"/>
<path d="M28.6237 87.9157L62.6143 87.4045L62.6143 30.1571L36.0352 45.4913L47.7914 51.1138L47.7914 72.0704H29.1348C13.0441 72.0704 0 85.1145 0 101.205L0 107.85C0 125.07 13.9595 139.029 31.1794 139.029H35.7796C52.9995 139.029 66.959 125.07 66.959 107.85V90.7269H43.9578L48.4259 99.0248C49.0216 100.131 49.4436 101.322 49.6772 102.557C51.3523 111.411 44.5624 119.606 35.5511 119.606H28.363C21.8902 119.606 16.522 114.595 16.0766 108.138L15.7829 103.879C15.241 96.0217 20.8333 89.0698 28.6237 87.9157Z" fill="#1C1B1B"/>
<ellipse cx="32.457" cy="104.272" rx="11.7562" ry="12.0117" transform="rotate(-90 32.457 104.272)" fill="#1C1B1B"/>
</svg>
