<svg width="191" height="350" viewBox="0 0 291 617" fill="none" xmlns="http://www.w3.org/2000/svg">
<path d="M107.67 306.008H194.938V273.141L73.6686 202.872L278.807 81.6022V2.45561e-05L0 159.804L0 242.54L107.67 306.008Z" fill="white" fill-opacity="0.06"/>
<path d="M126.937 389.877L277.674 387.611V133.737L159.804 201.739L211.939 226.673L211.939 319.609H129.203C57.8463 319.609 0 377.455 0 448.812L0 478.28C0 554.644 61.9056 616.55 138.27 616.55H158.671C235.035 616.55 296.941 554.644 296.941 478.28V402.344H194.938L214.753 439.143C217.395 444.049 219.266 449.332 220.302 454.807C227.731 494.072 197.62 530.414 157.657 530.414H125.781C97.0757 530.414 73.2695 508.193 71.2945 479.556L69.9918 460.667C67.5889 425.825 92.3888 394.995 126.937 389.877Z" fill="white" fill-opacity="0.06"/>
<ellipse cx="143.937" cy="462.412" rx="52.1347" ry="53.2681" transform="rotate(-90 143.937 462.412)" fill="white" fill-opacity="0.06"/>
</svg>
